# xmcd CD database file
#
# Track frame offsets:
#	150
#	13172
#	26319
#	37748
#	48101
#	62642
#	81999
#	98292
#	114621
#	129980
#	143594
#	160161
#	177968
#	186014
#
# Disc length: 2752 seconds
#
# Revision: 0
# Processed by: cddbd v1.4PL0 Copyright (c) Steve Scherf et al.
# Submitted via: CDex 1.50beta10
#
DISCID=a00abe0e
DTITLE=Angel Parra Trio - No Junta ni Pega
DYEAR=2000
DGENRE=Jazz
TTITLE0=Valparaiso Swing
TTITLE1=Cuanto Antes Mejor
TTITLE2=Fruta y Pollo
TTITLE3=Forró a la Manuela
TTITLE4=Gato Flojo
TTITLE5=Donde Nos tocó vivir
TTITLE6=Presta Luca
TTITLE7=El Fantasma
TTITLE8=Maria Gambrielli
TTITLE9=Llangka Blues
TTITLE10=Pee - Jean
TTITLE11=Asi Pasa Cuando Sucede
TTITLE12=Delirio Urbano
TTITLE13=Asi Pasa Cuando Sucede (Remix)
EXTD=YEAR: 2000
EXTT0=
EXTT1=
EXTT2=
EXTT3=
EXTT4=
EXTT5=
EXTT6=
EXTT7=
EXTT8=
EXTT9=
EXTT10=
EXTT11=
EXTT12=
EXTT13=
PLAYORDER=
